<mxfile host="Electron" agent="Mozilla/5.0 (Windows NT 10.0; Win64; x64) AppleWebKit/537.36 (KHTML, like Gecko) draw.io/28.1.2 Chrome/138.0.7204.243 Electron/37.4.0 Safari/537.36" version="28.1.2">
  <diagram name="Trang-1" id="tW3gmXIXDHWUP7bupHz9">
    <mxGraphModel dx="719" dy="716" grid="1" gridSize="10" guides="1" tooltips="1" connect="1" arrows="1" fold="1" page="1" pageScale="1" pageWidth="827" pageHeight="1169" math="0" shadow="0">
      <root>
        <mxCell id="0" />
        <mxCell id="1" parent="0" />
        <mxCell id="HjoHE90WQObVYJahUVzC-15" style="edgeStyle=orthogonalEdgeStyle;rounded=0;orthogonalLoop=1;jettySize=auto;html=1;" edge="1" parent="1" source="HjoHE90WQObVYJahUVzC-1" target="HjoHE90WQObVYJahUVzC-2">
          <mxGeometry relative="1" as="geometry" />
        </mxCell>
        <mxCell id="HjoHE90WQObVYJahUVzC-1" value="Bắt đầu" style="ellipse;whiteSpace=wrap;html=1;fillColor=#d5e8d4;strokeColor=#82b366;" vertex="1" parent="1">
          <mxGeometry x="195" y="120" width="120" height="80" as="geometry" />
        </mxCell>
        <mxCell id="HjoHE90WQObVYJahUVzC-14" style="edgeStyle=orthogonalEdgeStyle;rounded=0;orthogonalLoop=1;jettySize=auto;html=1;entryX=0.5;entryY=0;entryDx=0;entryDy=0;" edge="1" parent="1" source="HjoHE90WQObVYJahUVzC-2" target="HjoHE90WQObVYJahUVzC-4">
          <mxGeometry relative="1" as="geometry" />
        </mxCell>
        <mxCell id="HjoHE90WQObVYJahUVzC-2" value="Sinh viên nhập điểm" style="shape=parallelogram;perimeter=parallelogramPerimeter;whiteSpace=wrap;html=1;fixedSize=1;fillColor=#fff2cc;strokeColor=#d6b656;" vertex="1" parent="1">
          <mxGeometry x="170" y="240" width="170" height="60" as="geometry" />
        </mxCell>
        <mxCell id="HjoHE90WQObVYJahUVzC-13" style="edgeStyle=orthogonalEdgeStyle;rounded=0;orthogonalLoop=1;jettySize=auto;html=1;exitX=1;exitY=0.5;exitDx=0;exitDy=0;entryX=0;entryY=0.5;entryDx=0;entryDy=0;" edge="1" parent="1" source="HjoHE90WQObVYJahUVzC-4" target="HjoHE90WQObVYJahUVzC-6">
          <mxGeometry relative="1" as="geometry" />
        </mxCell>
        <mxCell id="HjoHE90WQObVYJahUVzC-4" value="Kiểm tra số điểm hợp lệ" style="rhombus;whiteSpace=wrap;html=1;fillColor=#dae8fc;strokeColor=#6c8ebf;" vertex="1" parent="1">
          <mxGeometry x="180" y="340" width="150" height="150" as="geometry" />
        </mxCell>
        <mxCell id="HjoHE90WQObVYJahUVzC-19" style="edgeStyle=orthogonalEdgeStyle;rounded=0;orthogonalLoop=1;jettySize=auto;html=1;exitX=0.5;exitY=1;exitDx=0;exitDy=0;entryX=0.5;entryY=0;entryDx=0;entryDy=0;" edge="1" parent="1" source="HjoHE90WQObVYJahUVzC-6" target="HjoHE90WQObVYJahUVzC-18">
          <mxGeometry relative="1" as="geometry" />
        </mxCell>
        <mxCell id="HjoHE90WQObVYJahUVzC-6" value="Đúng" style="rounded=1;whiteSpace=wrap;html=1;fillColor=#f8cecc;strokeColor=#b85450;" vertex="1" parent="1">
          <mxGeometry x="414" y="385" width="120" height="60" as="geometry" />
        </mxCell>
        <mxCell id="HjoHE90WQObVYJahUVzC-11" style="edgeStyle=orthogonalEdgeStyle;rounded=0;orthogonalLoop=1;jettySize=auto;html=1;exitX=0.5;exitY=1;exitDx=0;exitDy=0;" edge="1" parent="1" source="HjoHE90WQObVYJahUVzC-9" target="HjoHE90WQObVYJahUVzC-10">
          <mxGeometry relative="1" as="geometry" />
        </mxCell>
        <mxCell id="HjoHE90WQObVYJahUVzC-9" value="Sai" style="rounded=1;whiteSpace=wrap;html=1;fillColor=#f8cecc;strokeColor=#b85450;" vertex="1" parent="1">
          <mxGeometry x="190" y="540" width="130" height="60" as="geometry" />
        </mxCell>
        <mxCell id="HjoHE90WQObVYJahUVzC-16" style="edgeStyle=orthogonalEdgeStyle;rounded=0;orthogonalLoop=1;jettySize=auto;html=1;entryX=0;entryY=0.5;entryDx=0;entryDy=0;" edge="1" parent="1" source="HjoHE90WQObVYJahUVzC-10" target="HjoHE90WQObVYJahUVzC-1">
          <mxGeometry relative="1" as="geometry">
            <mxPoint x="180" y="260" as="targetPoint" />
            <Array as="points">
              <mxPoint x="110" y="700" />
              <mxPoint x="110" y="160" />
            </Array>
          </mxGeometry>
        </mxCell>
        <mxCell id="HjoHE90WQObVYJahUVzC-10" value="Thông báo lỗi và yêu cầu đăng nhập lại" style="rounded=1;whiteSpace=wrap;html=1;fillColor=#f8cecc;strokeColor=#b85450;" vertex="1" parent="1">
          <mxGeometry x="195" y="690" width="120" height="60" as="geometry" />
        </mxCell>
        <mxCell id="HjoHE90WQObVYJahUVzC-12" style="edgeStyle=orthogonalEdgeStyle;rounded=0;orthogonalLoop=1;jettySize=auto;html=1;exitX=0.5;exitY=1;exitDx=0;exitDy=0;entryX=0.5;entryY=0;entryDx=0;entryDy=0;" edge="1" parent="1" source="HjoHE90WQObVYJahUVzC-4" target="HjoHE90WQObVYJahUVzC-9">
          <mxGeometry relative="1" as="geometry" />
        </mxCell>
        <mxCell id="HjoHE90WQObVYJahUVzC-21" style="edgeStyle=orthogonalEdgeStyle;rounded=0;orthogonalLoop=1;jettySize=auto;html=1;exitX=0.5;exitY=1;exitDx=0;exitDy=0;entryX=0.5;entryY=0;entryDx=0;entryDy=0;" edge="1" parent="1" source="HjoHE90WQObVYJahUVzC-18" target="HjoHE90WQObVYJahUVzC-20">
          <mxGeometry relative="1" as="geometry" />
        </mxCell>
        <mxCell id="HjoHE90WQObVYJahUVzC-18" value="Tính trung bình và xếp loại" style="shape=parallelogram;perimeter=parallelogramPerimeter;whiteSpace=wrap;html=1;fixedSize=1;fillColor=#fff2cc;strokeColor=#d6b656;" vertex="1" parent="1">
          <mxGeometry x="389" y="530" width="170" height="70" as="geometry" />
        </mxCell>
        <mxCell id="HjoHE90WQObVYJahUVzC-23" style="edgeStyle=orthogonalEdgeStyle;rounded=0;orthogonalLoop=1;jettySize=auto;html=1;exitX=0.5;exitY=1;exitDx=0;exitDy=0;entryX=0.5;entryY=0;entryDx=0;entryDy=0;" edge="1" parent="1" source="HjoHE90WQObVYJahUVzC-20" target="HjoHE90WQObVYJahUVzC-22">
          <mxGeometry relative="1" as="geometry" />
        </mxCell>
        <mxCell id="HjoHE90WQObVYJahUVzC-20" value="Hiển thị bảng điểm" style="shape=parallelogram;perimeter=parallelogramPerimeter;whiteSpace=wrap;html=1;fixedSize=1;fillColor=#fff2cc;strokeColor=#d6b656;" vertex="1" parent="1">
          <mxGeometry x="401" y="690" width="146" height="60" as="geometry" />
        </mxCell>
        <mxCell id="HjoHE90WQObVYJahUVzC-22" value="Kết thúc" style="ellipse;whiteSpace=wrap;html=1;fillColor=#d5e8d4;strokeColor=#82b366;" vertex="1" parent="1">
          <mxGeometry x="414" y="800" width="120" height="80" as="geometry" />
        </mxCell>
      </root>
    </mxGraphModel>
  </diagram>
</mxfile>
